HIERARCHY
ROOT stdjntHead
{
  OFFSET -3.18841 160.33 5.91051
  CHANNELS 6 Xposition Yposition Zposition Zrotation Xrotation Yrotation
  JOINT stdjntChest
  {
    OFFSET 14.8138 -0.224452 1.69667
    CHANNELS 6 Xposition Yposition Zposition Zrotation Xrotation Yrotation
    JOINT stdjntShoulderRotLf
    {
      OFFSET -8.10694 0.0512668 1.8714
      CHANNELS 6 Xposition Yposition Zposition Zrotation Xrotation Yrotation
      JOINT stdjntArmLoTpLf
      {
        OFFSET 12.4653 -24.2621 0
        CHANNELS 6 Xposition Yposition Zposition Zrotation Xrotation Yrotation
        JOINT stdjntHandLf
        {
          OFFSET 21.8574 6.07838 -15.144
          CHANNELS 6 Xposition Yposition Zposition Zrotation Xrotation Yrotation
          End Site
          {
            OFFSET 0 0 0
          }
        }
      }
    }
    JOINT stdjntShoulderRotRt
    {
      OFFSET 8.08415 0.609581 1.87
      CHANNELS 6 Xposition Yposition Zposition Zrotation Xrotation Yrotation
      JOINT stdjntArmLoTpRt
      {
        OFFSET -15.4358 -22.4893 0
        CHANNELS 6 Xposition Yposition Zposition Zrotation Xrotation Yrotation
        JOINT stdjntHandCRt
        {
          OFFSET -20.7232 -18.7938 -0.559406
          CHANNELS 6 Xposition Yposition Zposition Zrotation Xrotation Yrotation
          End Site
          {
            OFFSET 0 0 0
          }
        }
      }
    }
    JOINT stdjntHips
    {
      OFFSET 1.16862 -33.8899 0.9187
      CHANNELS 6 Xposition Yposition Zposition Zrotation Xrotation Yrotation
      JOINT stdjntLegUpLf
      {
        OFFSET 6.33268 -11.3985 0.95272
        CHANNELS 6 Xposition Yposition Zposition Zrotation Xrotation Yrotation
        JOINT stdjntLegLoLf
        {
          OFFSET 43.4207 -0.987229 -1.00689
          CHANNELS 6 Xposition Yposition Zposition Zrotation Xrotation Yrotation
          JOINT stdjntLegEndLf
          {
            OFFSET 41.5391 -2.73173 0.965117
            CHANNELS 6 Xposition Yposition Zposition Zrotation Xrotation Yrotation
            End Site
            {
              OFFSET 0 0 0
            }
          }
        }
      }
      JOINT stdjntLegUpRt
      {
        OFFSET 12.5357 -4.70861 0.95272
        CHANNELS 6 Xposition Yposition Zposition Zrotation Xrotation Yrotation
        JOINT stdjntLegLoRt
        {
          OFFSET 41.606 -12.3997 2.69368
          CHANNELS 6 Xposition Yposition Zposition Zrotation Xrotation Yrotation
          JOINT stdjntLegEndRt
          {
            OFFSET 41.3152 -3.04284 -4.6658
            CHANNELS 6 Xposition Yposition Zposition Zrotation Xrotation Yrotation
            End Site
            {
              OFFSET 0 0 0
            }
          }
        }
      }
    }
  }
}
MOTION
Frames:	15
Frame Time:	0.0416667
-5.25029 160.476 5.91051 89.132 7.01671e-015 180 14.8096 -0.422429 1.69667 87.157 0 6.17947e-031 -8.10568 0.152096 1.8714 -56.4176 1.41245e-030 2.8249e-030 12.0217 -24.4845 0.145943 -14.9867 3.53113e-031 -0 21.5847 -0.441066 -16.6716 73.3792 7.01671e-015 180 8.09111 0.508984 1.87 63.3645 7.01671e-015 180 -15.0057 -22.7786 -1.42264e-006 -10.8266 7.06225e-031 -2.20695e-031 -19.6221 -17.1759 9.00855 74.191 -7.01671e-015 180 0.861747 -33.8986 0.9187 -47.5391 2.11868e-030 1.41245e-030 6.33268 -11.3985 0.95272 137.311 7.01671e-015 180 43.343 -2.77867 -1.00435 174.935 7.01671e-015 -180 41.6165 -1.01479 0.962681 85.1627 -7.76416e-024 -2.68562e-006 12.5357 -4.70861 0.95272 127.343 7.01671e-015 -180 41.4764 -12.6895 3.27898 -9.53902 0 7.06225e-031 41.2392 -3.1216 -5.25008 136.882 -7.01671e-015 -180 
-4.94987 160.227 5.91051 89.132 7.01671e-015 180 14.8072 -0.501914 1.69667 87.157 0 6.17947e-031 -8.10482 0.19258 1.8714 -56.4176 1.41245e-030 2.8249e-030 11.878 -24.5545 0.158768 -14.9867 3.53113e-031 -0 21.4916 -1.06534 -16.7634 73.3792 7.01671e-015 180 8.09355 0.468564 1.87 63.3645 7.01671e-015 180 -14.8618 -22.8727 -1.4248e-006 -10.8266 7.06225e-031 -2.20695e-031 -19.3076 -16.9601 9.9556 74.191 -7.01671e-015 180 0.738489 -33.901 0.9187 -47.5391 2.11868e-030 1.41245e-030 6.33268 -11.3985 0.95272 137.311 7.01671e-015 180 43.3521 -2.79881 0.321004 174.935 7.01671e-015 -180 41.5736 -0.522329 2.29242 85.1627 -7.76416e-024 -2.68562e-006 12.5357 -4.70861 0.95272 127.343 7.01671e-015 -180 40.7456 -13.7234 6.59793 -9.53902 0 7.06225e-031 40.7273 -2.41936 -8.56777 136.882 -7.01671e-015 -180 
-4.68433 159.936 5.91051 89.132 7.01671e-015 180 14.8041 -0.589938 1.69667 87.157 0 6.17947e-031 -8.10363 0.237416 1.8714 -56.4176 1.41245e-030 2.8249e-030 11.7187 -24.6308 0.171993 -14.9867 3.53113e-031 -0 21.3799 -1.70885 -16.8527 73.3792 7.01671e-015 180 8.09602 0.42378 1.87 63.3645 7.01671e-015 180 -14.7012 -22.9763 -1.42719e-006 -10.8266 7.06225e-031 -2.20695e-031 -18.9558 -16.7251 10.9012 74.191 -7.01671e-015 180 0.601954 -33.9029 0.9187 -47.5391 2.11868e-030 1.41245e-030 6.33268 -11.3985 0.95272 137.311 7.01671e-015 180 43.2864 -2.64666 2.57421 174.935 7.01671e-015 -180 41.3909 0.12907 4.54565 85.1627 -7.76416e-024 -2.68562e-006 12.5357 -4.70861 0.95272 127.343 7.01671e-015 -180 39.806 -14.6384 9.65761 -9.53902 0 7.06225e-031 39.9966 -1.75793 -11.6257 136.882 -7.01671e-015 -180 
-4.45083 159.616 5.91051 89.132 7.01671e-015 180 14.8003 -0.682509 1.69667 87.157 0 6.17947e-031 -8.10211 0.28457 1.8714 -56.4176 1.41245e-030 2.8249e-030 11.5497 -24.7104 0.185602 -14.9867 3.53113e-031 -0 21.2487 -2.364 -16.9393 73.3792 7.01671e-015 180 8.09835 0.376659 1.87 63.3645 7.01671e-015 180 -14.5293 -23.0854 -1.42975e-006 -10.8266 7.06225e-031 -2.20695e-031 -18.572 -16.4666 11.8387 74.191 -7.01671e-015 180 0.458326 -33.9042 0.9187 -47.5391 2.11868e-030 1.41245e-030 6.33268 -11.3985 0.95272 137.311 7.01671e-015 180 43.18 -2.64138 3.98156 174.935 7.01671e-015 -180 41.2077 0.611907 5.95302 85.1627 -7.76416e-024 -2.68562e-006 12.5357 -4.70861 0.95272 127.343 7.01671e-015 -180 38.7172 -15.4363 12.4405 -9.53902 0 7.06225e-031 39.1038 -1.14538 -14.4068 136.882 -7.01671e-015 -180 
-4.24653 159.282 5.91051 89.132 7.01671e-015 180 14.7959 -0.775638 1.69667 87.157 0 6.17947e-031 -8.1003 0.332012 1.8714 -56.4176 1.41245e-030 2.8249e-030 11.377 -24.7903 0.199576 -14.9867 3.53113e-031 -0 21.0979 -3.02325 -17.0227 73.3792 7.01671e-015 180 8.10042 0.329228 1.87 63.3645 7.01671e-015 180 -14.3514 -23.1964 -1.43245e-006 -10.8266 7.06225e-031 -2.20695e-031 -18.1623 -16.1814 12.7615 74.191 -7.01671e-015 180 0.313789 -33.9046 0.9187 -47.5391 2.11868e-030 1.41245e-030 6.33268 -11.3985 0.95272 137.311 7.01671e-015 180 43.0592 -2.67584 5.10762 174.935 7.01671e-015 -180 41.021 1.02716 7.07912 85.1627 -7.76416e-024 -2.68562e-006 12.5357 -4.70861 0.95272 127.343 7.01671e-015 -180 37.5377 -16.121 14.9367 -9.53902 0 7.06225e-031 38.1048 -0.58761 -16.9014 136.882 -7.01671e-015 -180 
-4.06861 158.946 5.91051 89.132 7.01671e-015 180 14.7912 -0.865342 1.69667 87.157 0 6.17947e-031 -8.0983 0.37771 1.8714 -56.4176 1.41245e-030 2.8249e-030 11.2067 -24.8676 0.213899 -14.9867 3.53113e-031 -0 20.9282 -3.67915 -17.1029 73.3792 7.01671e-015 180 8.10215 0.283519 1.87 63.3645 7.01671e-015 180 -14.1732 -23.3057 -1.43522e-006 -10.8266 7.06225e-031 -2.20695e-031 -17.7327 -15.867 13.6637 74.191 -7.01671e-015 180 0.17453 -33.9042 0.9187 -47.5391 2.11868e-030 1.41245e-030 6.33268 -11.3985 0.95272 137.311 7.01671e-015 180 42.9333 -2.72712 6.05273 174.935 7.01671e-015 -180 40.8359 1.39048 8.02427 85.1627 -7.76416e-024 -2.68562e-006 12.5357 -4.70861 0.95272 127.343 7.01671e-015 -180 36.3261 -16.6968 17.1376 -9.53902 0 7.06225e-031 37.0556 -0.0900403 -19.1011 136.882 -7.01671e-015 -180 
-3.91426 158.624 5.91051 89.132 7.01671e-015 180 14.7864 -0.947639 1.69667 87.157 0 6.17947e-031 -8.09624 0.419637 1.8714 -56.4176 1.41245e-030 2.8249e-030 11.0451 -24.9397 0.228553 -14.9867 3.53113e-031 -0 20.7411 -4.32442 -17.1797 73.3792 7.01671e-015 180 8.1035 0.241563 1.87 63.3645 7.01671e-015 180 -14.0004 -23.4099 -1.43803e-006 -10.8266 7.06225e-031 -2.20695e-031 -17.2897 -15.5222 14.5396 74.191 -7.01671e-015 180 0.0467341 -33.9031 0.9187 -47.5391 2.11868e-030 1.41245e-030 6.33268 -11.3985 0.95272 137.311 7.01671e-015 180 42.8097 -2.78452 6.84944 174.935 7.01671e-015 -180 40.6592 1.70515 8.82102 85.1627 -7.76416e-024 -2.68562e-006 12.5357 -4.70861 0.95272 127.343 7.01671e-015 -180 35.1412 -17.1691 19.0363 -9.53902 0 7.06225e-031 36.0124 0.342961 -20.9991 136.882 -7.01671e-015 -180 
-3.78066 158.329 5.91051 89.132 7.01671e-015 180 14.782 -1.01856 1.69667 87.157 0 6.17947e-031 -8.09428 0.455768 1.8714 -56.4176 1.41245e-030 2.8249e-030 10.8239 -25.0364 0.24352 -14.9867 3.53113e-031 -0 20.524 -5.01314 -17.253 73.3792 7.01671e-015 180 8.1045 0.205393 1.87 63.3645 7.01671e-015 180 -13.6681 -23.6054 -1.44635e-006 -10.8266 7.06225e-031 -2.20695e-031 -16.7297 -15.2679 15.3841 74.191 -7.01671e-015 180 -0.0634169 -33.9016 0.9187 -47.5391 2.11868e-030 1.41245e-030 6.33268 -11.3985 0.95272 137.311 7.01671e-015 180 42.695 -2.84099 7.51021 174.935 7.01671e-015 -180 40.4982 1.97077 9.48183 85.1627 -7.76416e-024 -2.68562e-006 12.5357 -4.70861 0.95272 127.343 7.01671e-015 -180 34.0414 -17.5442 20.6265 -9.53902 0 7.06225e-031 35.0318 0.707795 -22.5887 136.882 -7.01671e-015 -180 
-3.66503 158.075 5.91051 89.132 7.01671e-015 180 14.7782 -1.07412 1.69667 87.157 0 6.17947e-031 -8.09264 0.48408 1.8714 -56.4176 1.41245e-030 2.8249e-030 10.4827 -25.181 0.258783 -14.9867 3.53113e-031 -0 20.2593 -5.78955 -17.3228 73.3792 7.01671e-015 180 8.10517 0.177041 1.87 63.3645 7.01671e-015 180 -13.0327 -23.9621 -1.46422e-006 -10.8266 7.06225e-031 -2.20695e-031 -15.9731 -15.1902 16.1927 74.191 -7.01671e-015 180 -0.149743 -33.9001 0.9187 -47.5391 2.11868e-030 1.41245e-030 6.33268 -11.3985 0.95272 137.311 7.01671e-015 180 42.5955 -2.8912 8.03772 174.935 7.01671e-015 -180 40.36 2.18516 10.0094 85.1627 -7.76416e-024 -2.68562e-006 12.5357 -4.70861 0.95272 127.343 7.01671e-015 -180 33.0846 -17.8286 21.9001 -9.53902 0 7.06225e-031 34.17 1.0013 -23.8617 136.882 -7.01671e-015 -180 
-3.56456 157.878 5.91051 89.132 7.01671e-015 180 14.7757 -1.11037 1.69667 87.157 0 6.17947e-031 -8.09151 0.502551 1.8714 -56.4176 1.41245e-030 2.8249e-030 10.0394 -25.3608 0.274325 -14.9867 3.53113e-031 -0 19.942 -6.63161 -17.3889 73.3792 7.01671e-015 180 8.10555 0.15854 1.87 63.3645 7.01671e-015 180 -12.1288 -24.4321 -1.48905e-006 -10.8266 7.06225e-031 -2.20695e-031 -15.058 -15.2354 16.9613 74.191 -7.01671e-015 180 -0.206068 -33.899 0.9187 -47.5391 2.11868e-030 1.41245e-030 6.33268 -11.3985 0.95272 137.311 7.01671e-015 180 42.5172 -2.93094 8.42852 174.935 7.01671e-015 -180 40.252 2.34502 10.4002 85.1627 -7.76416e-024 -2.68562e-006 12.5357 -4.70861 0.95272 127.343 7.01671e-015 -180 32.3293 -18.0286 22.8442 -9.53902 0 7.06225e-031 33.484 1.21974 -24.8055 136.882 -7.01671e-015 -180 
-3.47647 157.75 5.91051 89.132 7.01671e-015 180 14.7748 -1.12334 1.69667 87.157 0 6.17947e-031 -8.0911 0.509157 1.8714 -56.4176 1.41245e-030 2.8249e-030 9.51229 -25.563 0.290128 -14.9867 3.53113e-031 -0 19.5697 -7.51735 -17.4514 73.3792 7.01671e-015 180 8.10568 0.151922 1.87 63.3645 7.01671e-015 180 -10.9919 -24.9642 -1.51792e-006 -10.8266 7.06225e-031 -2.20695e-031 -14.0196 -15.3521 17.6866 74.191 -7.01671e-015 180 -0.226216 -33.8986 0.9187 -47.5391 2.11868e-030 1.41245e-030 6.33268 -11.3985 0.95272 137.311 7.01671e-015 180 42.466 -2.95704 8.67396 174.935 7.01671e-015 -180 40.1818 2.44603 10.6457 85.1627 -7.76416e-024 -2.68562e-006 12.5357 -4.70861 0.95272 127.343 7.01671e-015 -180 31.8331 -18.1486 23.4383 -9.53902 0 7.06225e-031 33.0304 1.35795 -25.3993 136.882 -7.01671e-015 -180 
-3.40327 157.707 5.91051 89.132 7.01671e-015 180 14.7756 -1.11113 1.69667 87.157 0 6.17947e-031 -8.09149 0.502934 1.8714 -56.4176 1.41245e-030 2.8249e-030 8.91649 -25.7767 0.306174 -14.9867 3.53113e-031 -0 19.1414 -8.42772 -17.5104 73.3792 7.01671e-015 180 8.10556 0.158156 1.87 63.3645 7.01671e-015 180 -9.65712 -25.5103 -1.54786e-006 -10.8266 7.06225e-031 -2.20695e-031 -12.8909 -15.4961 18.3659 74.191 -7.01671e-015 180 -0.207239 -33.899 0.9187 -47.5391 2.11868e-030 1.41245e-030 6.33268 -11.3985 0.95272 137.311 7.01671e-015 180 42.4477 -2.96748 8.75966 174.935 7.01671e-015 -180 40.1567 2.48268 10.7315 85.1627 -7.76416e-024 -2.68562e-006 12.5357 -4.70861 0.95272 127.343 7.01671e-015 -180 31.6546 -18.1894 23.6474 -9.53902 0 7.06225e-031 32.8665 1.40697 -25.6084 136.882 -7.01671e-015 -180 
-3.41681 157.772 5.91051 89.132 7.01671e-015 180 14.778 -1.07696 1.69667 87.157 0 6.17947e-031 -8.09255 0.485525 1.8714 -56.4176 1.41245e-030 2.8249e-030 8.2594 -25.9945 0.322447 -14.9867 3.53113e-031 -0 18.6561 -9.35029 -17.5658 73.3792 7.01671e-015 180 8.1052 0.175595 1.87 63.3645 7.01671e-015 180 -8.15612 -26.0291 -1.57611e-006 -10.8266 7.06225e-031 -2.20695e-031 -11.7005 -15.6346 18.9971 74.191 -7.01671e-015 180 -0.154147 -33.9001 0.9187 -47.5391 2.11868e-030 1.41245e-030 6.33268 -11.3985 0.95272 137.311 7.01671e-015 180 42.4725 -2.93321 8.6499 174.935 7.01671e-015 -180 40.1897 2.42005 10.6218 85.1627 -7.76416e-024 -2.68562e-006 12.5357 -4.70861 0.95272 127.343 7.01671e-015 -180 31.958 -18.1144 23.2942 -9.53902 0 7.06225e-031 33.1419 1.32141 -25.2555 136.882 -7.01671e-015 -180 
-3.56529 157.942 5.91051 89.132 7.01671e-015 180 14.7816 -1.02453 1.69667 87.157 0 6.17947e-031 -8.09411 0.458813 1.8714 -56.4176 1.41245e-030 2.8249e-030 7.54794 -26.2097 0.338929 -14.9867 3.53113e-031 -0 18.1138 -10.2734 -17.6176 73.3792 7.01671e-015 180 8.10458 0.202344 1.87 63.3645 7.01671e-015 180 -6.5247 -26.4851 -1.60025e-006 -10.8266 7.06225e-031 -2.20695e-031 -10.477 -15.7425 19.5786 74.191 -7.01671e-015 180 -0.0726996 -33.9015 0.9187 -47.5391 2.11868e-030 1.41245e-030 6.33268 -11.3985 0.95272 137.311 7.01671e-015 180 42.5407 -2.83376 8.34281 174.935 7.01671e-015 -180 40.28 2.23987 10.3147 85.1627 -7.76416e-024 -2.68562e-006 12.5357 -4.70861 0.95272 127.343 7.01671e-015 -180 32.7775 -17.8949 22.3042 -9.53902 0 7.06225e-031 33.8813 1.08501 -24.2664 136.882 -7.01671e-015 -180 
-3.82815 158.195 5.91051 89.132 7.01671e-015 180 14.7858 -0.957547 1.69667 87.157 0 6.17947e-031 -8.09597 0.424685 1.8714 -56.4176 1.41245e-030 2.8249e-030 6.78945 -26.4161 0.355602 -14.9867 3.53113e-031 -0 17.5164 -11.1859 -17.666 73.3792 7.01671e-015 180 8.10365 0.23651 1.87 63.3645 7.01671e-015 180 -4.80334 -26.8507 -1.61836e-006 -10.8266 7.06225e-031 -2.20695e-031 -9.24969 -15.8027 20.1094 74.191 -7.01671e-015 180 0.0313456 -33.9029 0.9187 -47.5391 2.11868e-030 1.41245e-030 6.33268 -11.3985 0.95272 137.311 7.01671e-015 180 42.642 -2.68297 7.86129 174.935 7.01671e-015 -180 40.4149 1.95855 9.83324 85.1627 -7.76416e-024 -2.68562e-006 12.5357 -4.70861 0.95272 127.343 7.01671e-015 -180 33.978 -17.529 20.7437 -9.53902 0 7.06225e-031 34.9549 0.717853 -22.7072 136.882 -7.01671e-015 -180 
